<?xml version="1.0" standalone="no"?>
<!DOCTYPE svg PUBLIC "-//W3C//DTD SVG 20010904//EN"
 "http://www.w3.org/TR/2001/REC-SVG-20010904/DTD/svg10.dtd">
<svg version="1.0" xmlns="http://www.w3.org/2000/svg"
 width="700.000000pt" height="700.000000pt" viewBox="0 0 700.000000 700.000000"
 preserveAspectRatio="xMidYMid meet">
<metadata>
Created by potrace 1.14, written by Peter Selinger 2001-2017
</metadata>
<g transform="translate(0.000000,700.000000) scale(0.100000,-0.100000)"
fill="#000000" stroke="none">
<path d="M850 4827 l0 -63 70 -12 c146 -25 233 -69 272 -137 l23 -40 3 -1078
c2 -739 -1 -1091 -8 -1118 -14 -51 -60 -103 -108 -122 -40 -16 -116 -31 -214
-42 l-58 -6 0 -65 0 -65 768 3 767 4 96 26 c216 59 336 124 460 248 139 139
198 285 199 486 0 109 -26 219 -72 305 -40 76 -143 188 -221 241 -114 78 -291
144 -462 172 -44 8 -70 17 -70 25 0 8 34 23 83 37 287 83 483 239 552 439 46
134 46 305 0 428 -71 190 -279 335 -549 382 -71 12 -209 15 -808 15 l-723 0 0
-63z m1321 -105 c220 -63 324 -223 322 -497 -3 -316 -136 -502 -400 -561 -56
-12 -128 -17 -267 -18 l-191 -1 -3 547 -2 547 97 4 c192 8 374 -1 444 -21z
m44 -1256 c114 -31 197 -80 270 -157 118 -126 161 -257 151 -459 -16 -335
-165 -544 -434 -606 -92 -21 -316 -15 -387 10 -78 28 -130 70 -157 123 l-23
48 -3 519 c-1 286 0 526 3 534 8 21 496 12 580 -12z"/>
<path d="M3520 4828 l0 -63 74 -12 c148 -24 231 -66 269 -136 l22 -42 3 -1070
c2 -778 0 -1084 -8 -1123 -14 -65 -54 -114 -112 -137 -23 -9 -93 -22 -155 -28
l-113 -11 0 -63 0 -63 649 0 c712 0 775 4 994 59 460 116 805 398 966 789 147
357 126 883 -49 1226 -65 127 -129 215 -230 317 -191 192 -428 315 -755 392
-87 20 -118 21 -822 24 l-733 4 0 -63z m1405 -117 c376 -104 649 -399 755
-816 75 -292 62 -722 -29 -1006 -132 -410 -419 -631 -852 -656 -258 -15 -423
49 -475 183 -18 47 -19 98 -22 1174 -1 618 0 1130 3 1138 4 12 51 13 273 9
236 -4 276 -7 347 -26z"/>
</g>
</svg>
