<?xml version="1.0" standalone="no"?>
<!DOCTYPE svg PUBLIC "-//W3C//DTD SVG 20010904//EN"
 "http://www.w3.org/TR/2001/REC-SVG-20010904/DTD/svg10.dtd">
<svg version="1.0" xmlns="http://www.w3.org/2000/svg"
 width="700.000000pt" height="700.000000pt" viewBox="0 0 700.000000 700.000000"
 preserveAspectRatio="xMidYMid meet">
<metadata>
Created by potrace 1.14, written by Peter Selinger 2001-2017
</metadata>
<g transform="translate(0.000000,700.000000) scale(0.100000,-0.100000)"
fill="#000000" stroke="none">
<path d="M1559 4510 c-4 -30 -4 -82 0 -88 4 -4 35 -13 70 -21 94 -18 154 -52
176 -97 16 -35 18 -91 17 -814 0 -698 -1 -780 -16 -808 -28 -54 -72 -73 -196
-88 -30 -3 -56 -7 -57 -8 0 0 -4 -18 -7 -38 -4 -24 -1 -41 8 -50 10 -11 112
-13 532 -12 562 1 604 4 743 59 137 53 262 158 315 264 49 95 64 256 35 363
-44 164 -189 294 -399 357 -60 18 -84 24 -149 36 -39 7 -35 12 26 30 56 16
173 64 183 75 3 3 17 11 32 19 16 8 53 39 84 69 142 139 171 382 64 538 -71
102 -186 170 -348 205 -41 9 -209 13 -584 13 -291 1 -528 -1 -529 -4z m1004
-147 c67 -30 110 -75 145 -152 20 -44 26 -74 28 -150 6 -160 -31 -268 -117
-345 -83 -75 -167 -96 -387 -100 l-102 -1 0 63 c0 82 0 619 0 677 l0 44 108 3
c152 4 256 -8 325 -39z m-3 -886 c142 -49 241 -152 270 -282 15 -68 14 -179
-4 -264 -47 -227 -204 -341 -449 -329 -135 7 -212 46 -240 121 -5 13 -10 486
-7 739 l0 36 193 -2 c141 -2 204 -7 237 -19z"/>
<path d="M3479 4515 c-1 0 -3 -22 -5 -48 -3 -52 -2 -53 56 -61 72 -11 126 -31
162 -59 48 -38 48 -36 48 -856 0 -872 3 -833 -73 -870 -23 -11 -73 -23 -112
-26 -38 -4 -75 -8 -81 -10 -6 -2 -12 -24 -12 -48 -1 -35 3 -46 16 -49 9 -2
229 -3 487 -3 516 2 580 8 758 66 379 124 633 415 682 781 6 50 6 257 0 313
-8 69 -42 210 -60 251 -8 19 -22 51 -31 72 -52 117 -191 279 -304 354 -112 73
-311 154 -430 173 -19 3 -48 9 -65 12 -20 4 -1011 12 -1036 8z m1024 -144
c282 -91 455 -292 534 -623 19 -79 25 -367 11 -481 -55 -429 -316 -672 -709
-661 -162 4 -240 39 -277 123 -14 32 -16 134 -17 846 -1 719 1 811 15 816 8 4
96 5 195 4 153 -2 190 -6 248 -24z"/>
</g>
</svg>
