<?xml version="1.0" standalone="no"?>
<!DOCTYPE svg PUBLIC "-//W3C//DTD SVG 20010904//EN"
 "http://www.w3.org/TR/2001/REC-SVG-20010904/DTD/svg10.dtd">
<svg version="1.0" xmlns="http://www.w3.org/2000/svg"
 width="772.000000pt" height="772.000000pt" viewBox="0 0 772.000000 772.000000"
 preserveAspectRatio="xMidYMid meet">
<metadata>
Created by potrace 1.14, written by Peter Selinger 2001-2017
</metadata>
<g transform="translate(0.000000,772.000000) scale(0.100000,-0.100000)"
fill="#000000" stroke="none">
<path d="M530 3968 l0 -1968 28 -1 c15 -1 32 0 37 1 6 1 15 2 20 2 6 0 35 -1
65 -1 30 0 66 -1 80 -2 23 -1 64 0 93 2 16 1 116 0 147 -2 23 -1 62 0 93 2 6
0 68 0 137 -1 69 0 130 0 135 1 6 1 14 0 20 -1 12 -2 127 -2 140 0 6 2 14 1
20 0 12 -2 127 -2 140 0 6 2 14 1 20 0 23 -4 136 -2 141 3 3 3 16 2 29 -3 13
-5 25 -7 27 -4 3 2 70 6 149 9 79 2 153 6 164 8 11 3 47 8 80 12 76 9 90 12
145 25 25 7 53 13 64 16 82 16 230 76 326 131 378 216 548 617 476 1122 -6 38
-7 40 -37 141 -22 73 -95 226 -119 250 -3 3 -23 28 -45 55 -123 154 -291 265
-490 324 -44 13 -87 26 -95 28 -8 3 12 12 45 19 69 17 193 61 215 78 8 7 29
18 45 26 17 8 66 51 110 95 108 108 160 208 202 385 18 78 23 280 11 400 -27
257 -178 485 -413 627 -20 12 -126 65 -135 68 -3 1 -17 7 -32 13 -76 32 -241
73 -343 87 -22 2 -60 8 -85 11 -25 4 -397 7 -827 8 l-783 2 0 -1968z m1550
1518 c14 -3 39 -9 55 -12 17 -3 35 -7 40 -8 6 -2 24 -6 40 -10 198 -50 354
-204 390 -387 3 -13 8 -37 11 -54 10 -49 6 -218 -5 -248 -6 -15 -9 -27 -6 -27
8 0 -32 -105 -57 -149 -54 -95 -178 -189 -298 -226 -49 -15 -93 -26 -125 -30
-22 -4 -51 -9 -65 -12 -14 -3 -244 -7 -511 -8 l-486 -3 0 594 0 593 496 -3
c273 -2 507 -6 521 -10z m-910 -1606 c9 5 22 5 29 0 8 -4 27 -4 42 0 16 5 29
5 29 0 0 -5 13 -5 30 0 17 5 30 5 30 0 0 -5 13 -5 30 0 17 5 30 5 30 0 0 -5
13 -5 30 0 17 5 30 5 30 0 0 -5 13 -5 30 0 17 5 30 5 30 0 0 -5 13 -5 30 0 17
5 30 5 30 0 0 -5 13 -5 30 0 17 5 30 5 30 0 0 -5 13 -5 30 0 17 5 30 5 30 0 0
-5 13 -5 30 0 17 5 30 5 30 0 0 -5 13 -5 30 0 17 5 30 5 30 0 0 -5 13 -5 30 0
17 5 30 6 30 2 0 -4 44 -7 98 -7 336 -2 557 -95 686 -290 31 -48 64 -120 72
-158 2 -10 6 -27 9 -37 11 -34 28 -170 27 -215 -2 -92 -14 -195 -30 -255 -22
-82 -69 -190 -83 -190 -5 0 -9 -6 -9 -13 0 -8 -26 -39 -57 -71 -58 -59 -146
-114 -223 -141 -25 -8 -52 -18 -60 -22 -8 -3 -19 -7 -25 -7 -11 -2 -86 -16
-120 -22 -20 -4 -145 -14 -223 -17 -23 -1 -42 2 -42 7 0 5 -6 4 -12 -1 -7 -5
-111 -8 -233 -6 -121 2 -224 3 -230 3 -5 0 -84 -1 -173 -3 -100 -1 -167 2
-172 8 -13 16 -9 1437 4 1432 6 -2 20 -1 31 3 11 4 27 4 35 0 8 -5 22 -4 30 0z"/>
<path d="M4235 5931 c-8 -14 -3 -3921 6 -3927 5 -3 28 -5 52 -4 23 0 53 0 67
-1 23 -1 63 0 93 2 16 1 116 0 147 -2 23 -1 64 0 93 2 16 1 116 0 147 -2 14 0
37 -1 53 0 15 0 35 1 45 1 25 1 194 2 212 1 8 0 29 -2 47 -4 17 -2 36 -1 43 3
6 4 31 4 55 0 25 -4 47 -5 49 -3 2 2 73 6 157 8 141 3 235 9 314 20 17 2 55 7
85 10 30 3 62 8 70 10 8 2 35 7 60 10 95 13 372 85 445 115 11 5 35 14 54 22
130 50 346 175 436 252 76 65 172 167 223 237 53 71 119 174 112 174 -2 0 9
19 23 42 15 24 27 46 27 50 0 5 13 40 29 78 30 71 44 110 40 110 -1 0 3 9 9
21 6 11 13 32 16 45 3 13 8 35 11 49 3 14 8 32 10 40 2 8 4 15 5 15 1 0 3 7 5
15 1 8 8 40 14 70 6 30 13 72 16 93 3 20 8 54 11 75 21 138 31 464 19 622 -6
91 -14 174 -19 200 -3 14 -7 46 -10 71 -3 26 -8 53 -10 60 -3 8 -8 32 -11 54
-3 22 -10 58 -16 80 -6 22 -12 47 -14 56 -15 76 -123 344 -166 409 -128 198
-208 291 -345 402 -175 141 -480 279 -734 334 -14 2 -56 12 -95 20 -38 8 -81
16 -95 18 -14 2 -45 6 -70 10 -74 12 -92 14 -170 21 -41 4 -91 9 -110 11 -54
7 -1431 11 -1435 5z m1480 -445 c22 -2 54 -7 71 -10 17 -3 46 -8 65 -10 248
-33 528 -147 688 -282 101 -86 222 -237 262 -329 8 -16 16 -32 19 -35 6 -6 22
-48 60 -156 27 -76 65 -237 75 -314 21 -170 27 -496 12 -645 -42 -402 -154
-681 -358 -885 -105 -106 -212 -175 -389 -253 -36 -16 -200 -65 -244 -73 -14
-2 -36 -8 -50 -14 -13 -5 -26 -7 -29 -4 -2 3 -24 0 -48 -5 -96 -21 -250 -31
-537 -34 -100 -1 -182 2 -182 6 0 5 -5 5 -12 1 -14 -9 -347 -12 -349 -4 -3 12
-5 3046 -2 3052 4 7 877 2 948 -6z"/>
</g>
</svg>
